<svg width="508.3" height="115.2783358173197" viewBox="0 0 369.9130434782609 83.89329146034574" class="looka-1j8o68f">
    <defs id="SvgjsDefs1194"></defs>
    <g id="SvgjsG1195" featurekey="Df7oLJ-0"
        transform="matrix(0.9783474222780845,0,0,0.9783474222780845,-10.26717387736461,-13.941449834437895)"
        fill="#4e617e">
        <path xmlns="http://www.w3.org/2000/svg" fill="none" stroke="#4e617e" stroke-width="4" stroke-linecap="round"
            stroke-linejoin="round" stroke-miterlimit="10"
            d="  M70.752,21.002C77.739,28.246,82.166,38.998,82.166,51c0,9.232-2.62,17.727-7.01,24.452"></path>
        <path xmlns="http://www.w3.org/2000/svg" fill="none" stroke="#4e617e" stroke-width="4" stroke-linecap="round"
            stroke-linejoin="round" stroke-miterlimit="10"
            d="  M23.771,75.34c-4.347-6.708-6.938-15.158-6.938-24.34c0-12.007,4.43-22.763,11.422-30.008"></path>
        <path xmlns="http://www.w3.org/2000/svg" fill="none" stroke="#4e617e" stroke-width="8" stroke-linecap="round"
            stroke-linejoin="round" stroke-miterlimit="10"
            d="  M27.46,21.144c5.762-6.157,13.333-6.894,21.626-6.894c8.256,0,15.796,0.702,21.547,6.809"></path>
        <path xmlns="http://www.w3.org/2000/svg"
            d="M29.27,72.863c0.752,3.367-1.367,6.705-4.734,7.457l-2.395,0.535c-3.367,0.752-6.706-1.366-7.458-4.733l-4.037-18.069  c-0.752-3.367,1.367-6.705,4.734-7.458l2.395-0.535c3.367-0.752,6.706,1.367,7.458,4.734L29.27,72.863z">
        </path>
        <path xmlns="http://www.w3.org/2000/svg"
            d="M69.49,72.874c-0.754,3.366,1.365,6.706,4.732,7.458l2.395,0.535c3.367,0.752,6.707-1.367,7.459-4.734l4.037-18.068  c0.754-3.366-1.365-6.707-4.732-7.459l-2.395-0.535c-3.367-0.752-6.707,1.367-7.459,4.734L69.49,72.874z">
        </path>
        <circle xmlns="http://www.w3.org/2000/svg" cx="18.875" cy="36.875" r="3.625"></circle>
        <circle xmlns="http://www.w3.org/2000/svg" cx="80" cy="36.875" r="3.625"></circle>
        <path xmlns="http://www.w3.org/2000/svg"
            d="M26.446,82.432c0.233,0.867-0.281,1.758-1.147,1.991l0,0c-0.867,0.233-1.758-0.28-1.991-1.147l-0.779-2.896  c-0.233-0.864,0.281-1.758,1.147-1.989l0,0c0.867-0.232,1.758,0.279,1.991,1.146L26.446,82.432z">
        </path>
        <path xmlns="http://www.w3.org/2000/svg"
            d="M26.186,84.832c0.107,0.398-0.13,0.812-0.53,0.919l0,0c-0.4,0.106-0.812-0.13-0.919-0.53l-0.292-1.086  c-0.107-0.4,0.129-0.812,0.529-0.919l0,0c0.4-0.106,0.812,0.13,0.919,0.529L26.186,84.832z">
        </path>
        <g xmlns="http://www.w3.org/2000/svg">
            <path
                d="M27.125,100h-1v-7.875c0-2.291-0.978-6.596-0.987-6.639l0.975-0.223c0.042,0.181,1.013,4.458,1.013,6.861V100z">
            </path>
        </g>
        <circle xmlns="http://www.w3.org/2000/svg" fill="#4e617e" cx="18.938" cy="36.938" r="0.688"></circle>
        <circle xmlns="http://www.w3.org/2000/svg" fill="#4e617e" cx="80.25" cy="36.938" r="0.688"></circle>
    </g>
    <g id="SvgjsG1196" featurekey="Ua4uQk-0"
        transform="matrix(2.645337720633379,0,0,2.645337720633379,94.14826283871945,2.762855385077305)" fill="#7A6FF9">
        <path
            d="M5.86 5.76 c2.52 0 4.06 1.56 4.82 2.88 l-2.36 1.42 c-0.78 -1 -1.46 -1.46 -2.46 -1.46 c-0.86 0 -1.5 0.5 -1.5 1.2 c0 0.72 0.4 1.08 1.4 1.42 l0.94 0.34 c3.26 1.14 4.38 2.58 4.38 4.44 c0 2.92 -2.76 4.3 -5.16 4.3 c-2.56 0 -4.52 -1.52 -5.22 -3.46 l2.46 -1.32 c0.5 0.9 1.24 1.88 2.76 1.88 c1.04 0 1.82 -0.42 1.82 -1.36 c0 -0.86 -0.48 -1.26 -1.98 -1.82 l-0.8 -0.28 c-2.06 -0.74 -3.8 -1.72 -3.8 -4.28 c0 -2.28 2.16 -3.9 4.7 -3.9 z M18.64 9.42 c2.38 0 5.12 1.78 5.12 5.36 c0 3.72 -2.74 5.42 -5.12 5.42 c-1.6 0 -2.54 -0.88 -2.68 -1.24 l0 4.84 l-3.16 0 l0 -6.02 l0 -8.18 l3.16 0 l0 0.96 c0.14 -0.22 1.08 -1.14 2.68 -1.14 z M18.18 17.42 c1.36 0 2.52 -0.92 2.52 -2.64 c0 -1.66 -1.16 -2.58 -2.52 -2.58 c-1.3 0 -2.36 0.9 -2.36 2.58 c0 1.74 1.06 2.64 2.36 2.64 z M30.64 9.42 c2.36 0 5.48 1.78 5.48 5.42 c0 3.66 -3.12 5.36 -5.48 5.36 s-5.48 -1.7 -5.48 -5.36 c0 -3.64 3.12 -5.42 5.48 -5.42 z M30.64 12.2 c-1.2 0 -2.42 0.92 -2.42 2.64 c0 1.66 1.22 2.58 2.42 2.58 s2.44 -0.92 2.44 -2.58 c0 -1.72 -1.24 -2.64 -2.44 -2.64 z M42.9 17.36 c0.56 0 0.96 -0.08 1.4 -0.2 l0 2.62 c-0.44 0.2 -1.16 0.34 -2.22 0.34 c-1.74 0 -3.2 -0.58 -3.2 -3.78 l0 -4.14 l-1.46 0 l0 -2.6 l1.46 0 l0 -2.44 l3.16 0 l0 2.44 l2.22 0 l0 2.6 l-2.22 0 l0 4.14 c0 0.46 0.12 1.02 0.86 1.02 z M54.42 9.56 l3.14 0 l-6.36 14.24 l-3.16 0 l1.92 -4.16 l-4.5 -10.08 l3.14 0 l2.92 6.68 z M74.36 6 l0 14 l-3.32 0 l0 -6.76 l-2.86 6.76 l-2.78 0 l-2.82 -6.72 l0 6.72 l-3.32 0 l0 -14 l3.18 0 l4.38 9.72 l4.36 -9.72 l3.18 0 z M79.74000000000001 5.859999999999999 l0 2.66 l-3.16 0 l0 -2.66 l3.16 0 z M79.74000000000001 9.6 l0 10.4 l-3.16 0 l0 -10.4 l3.16 0 z M88.98 20 l-3.38 -4.04 l-0.66 0.7 l0 3.34 l-3.16 0 l0 -3.78 l0 -10.36 l3.16 0 l0 6.94 l2.94 -3.2 l3.78 0 l-4.12 4.34 l5.04 6.06 l-3.6 0 z M99.16 9.42 c2.36 0 5.66 1.78 5 6.48 l-7.26 0 c0.36 1.08 1.3 1.64 2.56 1.64 c1.28 0 1.68 -0.28 2.4 -0.58 l1.74 1.68 c-0.92 0.9 -2.16 1.56 -4.26 1.56 c-2.58 0 -5.66 -1.78 -5.66 -5.36 c0 -3.64 3.12 -5.42 5.48 -5.42 z M99.16 12.120000000000001 c-0.9 0 -1.82 0.52 -2.22 1.56 l4.42 0 c-0.32 -1.04 -1.3 -1.56 -2.2 -1.56 z">
        </path>
    </g>
</svg>